<mxfile host="app.diagrams.net" modified="2023-01-12T06:59:25.864Z" agent="5.0 (Windows NT 10.0; Win64; x64) AppleWebKit/537.36 (KHTML, like Gecko) Chrome/108.0.0.0 Safari/537.36" version="20.8.3" etag="ualKBuKLgMMjBmGOJBSl" type="github">
  <diagram id="psPB3-L5uXXEzoRQFTQ7" name="第 1 页">
    <mxGraphModel dx="2876" dy="2260" grid="1" gridSize="10" guides="1" tooltips="1" connect="1" arrows="1" fold="1" page="1" pageScale="1" pageWidth="827" pageHeight="1169" math="0" shadow="0">
      <root>
        <mxCell id="0" />
        <mxCell id="1" parent="0" />
        <mxCell id="7wx1XrSNsFNIpXasYrjz-1" value="SZ_SH(tier_20)" style="rounded=0;whiteSpace=wrap;html=1;fillColor=#dae8fc;strokeColor=#6c8ebf;" vertex="1" parent="1">
          <mxGeometry x="-488" y="60" width="120" height="60" as="geometry" />
        </mxCell>
        <mxCell id="7wx1XrSNsFNIpXasYrjz-2" value="&amp;nbsp;" style="rounded=0;whiteSpace=wrap;html=1;fontFamily=Helvetica;fontSize=8;dashed=1;dashPattern=8 8;" vertex="1" parent="1">
          <mxGeometry x="-510" y="-90" width="360" height="730" as="geometry" />
        </mxCell>
        <mxCell id="7wx1XrSNsFNIpXasYrjz-3" value="" style="rounded=0;whiteSpace=wrap;html=1;fontFamily=Helvetica;fontSize=8;dashed=1;dashPattern=8 8;" vertex="1" parent="1">
          <mxGeometry x="810" y="-100" width="420" height="740" as="geometry" />
        </mxCell>
        <mxCell id="7wx1XrSNsFNIpXasYrjz-4" value="&amp;nbsp;" style="rounded=0;whiteSpace=wrap;html=1;fontFamily=Helvetica;fontSize=8;dashed=1;dashPattern=8 8;" vertex="1" parent="1">
          <mxGeometry x="37.5" y="-95" width="622.5" height="735" as="geometry" />
        </mxCell>
        <mxCell id="7wx1XrSNsFNIpXasYrjz-5" value="" style="shape=flexArrow;endArrow=classic;html=1;rounded=0;strokeColor=#FFF2CC;fontFamily=Helvetica;fontSize=8;startSize=10;endSize=6.907692307692308;edgeStyle=orthogonalEdgeStyle;fillColor=#fff2cc;endWidth=35.38461538461539;entryX=0.011;entryY=0.505;entryDx=0;entryDy=0;entryPerimeter=0;exitX=0.503;exitY=0.015;exitDx=0;exitDy=0;exitPerimeter=0;" edge="1" parent="1" source="7wx1XrSNsFNIpXasYrjz-14" target="7wx1XrSNsFNIpXasYrjz-6">
          <mxGeometry width="50" height="50" relative="1" as="geometry">
            <mxPoint x="460" y="220" as="sourcePoint" />
            <mxPoint x="490" y="190" as="targetPoint" />
            <Array as="points">
              <mxPoint x="450" y="87" />
              <mxPoint x="610" y="87" />
            </Array>
          </mxGeometry>
        </mxCell>
        <mxCell id="7wx1XrSNsFNIpXasYrjz-6" value="Bus" style="verticalLabelPosition=middle;verticalAlign=middle;html=1;shape=mxgraph.basic.rect;fillColor2=none;strokeWidth=1;size=20;indent=5;fillColor=#D5E8D4;strokeColor=#D5E8D4;labelPosition=center;align=center;" vertex="1" parent="1">
          <mxGeometry x="690" y="-80" width="20" height="330" as="geometry" />
        </mxCell>
        <mxCell id="7wx1XrSNsFNIpXasYrjz-7" value="Bus" style="verticalLabelPosition=middle;verticalAlign=middle;html=1;shape=mxgraph.basic.rect;fillColor2=none;strokeWidth=1;size=5.53;indent=5;fillColor=#DAE8FC;strokeColor=#DAE8FC;labelPosition=center;align=center;" vertex="1" parent="1">
          <mxGeometry x="-100" y="-90" width="20" height="730" as="geometry" />
        </mxCell>
        <mxCell id="7wx1XrSNsFNIpXasYrjz-8" value="" style="edgeStyle=orthogonalEdgeStyle;rounded=0;orthogonalLoop=1;jettySize=auto;html=1;fontFamily=Helvetica;" edge="1" parent="1" source="7wx1XrSNsFNIpXasYrjz-9" target="7wx1XrSNsFNIpXasYrjz-12">
          <mxGeometry relative="1" as="geometry" />
        </mxCell>
        <mxCell id="7wx1XrSNsFNIpXasYrjz-9" value="FrontActor" style="verticalLabelPosition=middle;verticalAlign=middle;html=1;shape=mxgraph.basic.rect;fillColor2=none;strokeWidth=1;size=20;indent=5;align=center;labelPosition=center;fillColor=#b1ddf0;strokeColor=#10739e;" vertex="1" parent="1">
          <mxGeometry x="80" y="240" width="100" height="40" as="geometry" />
        </mxCell>
        <mxCell id="7wx1XrSNsFNIpXasYrjz-10" value="" style="edgeStyle=orthogonalEdgeStyle;rounded=0;orthogonalLoop=1;jettySize=auto;html=1;fontFamily=Helvetica;" edge="1" parent="1" source="7wx1XrSNsFNIpXasYrjz-12" target="7wx1XrSNsFNIpXasYrjz-14">
          <mxGeometry relative="1" as="geometry" />
        </mxCell>
        <mxCell id="7wx1XrSNsFNIpXasYrjz-11" style="edgeStyle=orthogonalEdgeStyle;rounded=0;orthogonalLoop=1;jettySize=auto;html=1;entryX=0;entryY=0.664;entryDx=0;entryDy=0;entryPerimeter=0;strokeColor=#000000;fontColor=#FF0000;fillColor=#DAE8FC;" edge="1" parent="1" source="7wx1XrSNsFNIpXasYrjz-12" target="7wx1XrSNsFNIpXasYrjz-52">
          <mxGeometry relative="1" as="geometry">
            <Array as="points">
              <mxPoint x="310" y="477" />
            </Array>
          </mxGeometry>
        </mxCell>
        <mxCell id="7wx1XrSNsFNIpXasYrjz-12" value="OrderActor" style="verticalLabelPosition=middle;verticalAlign=middle;html=1;shape=mxgraph.basic.rect;fillColor2=none;strokeWidth=1;size=20;indent=5;align=center;labelPosition=center;fillColor=#b1ddf0;strokeColor=#10739e;" vertex="1" parent="1">
          <mxGeometry x="257.5" y="240" width="100" height="40" as="geometry" />
        </mxCell>
        <mxCell id="7wx1XrSNsFNIpXasYrjz-13" style="edgeStyle=orthogonalEdgeStyle;rounded=0;orthogonalLoop=1;jettySize=auto;html=1;" edge="1" parent="1" source="7wx1XrSNsFNIpXasYrjz-14" target="7wx1XrSNsFNIpXasYrjz-16">
          <mxGeometry relative="1" as="geometry" />
        </mxCell>
        <mxCell id="7wx1XrSNsFNIpXasYrjz-14" value="ChannelActor" style="verticalLabelPosition=middle;verticalAlign=middle;html=1;shape=mxgraph.basic.rect;fillColor2=none;strokeWidth=1;size=20;indent=5;align=center;labelPosition=center;fillColor=#b1ddf0;strokeColor=#10739e;" vertex="1" parent="1">
          <mxGeometry x="400" y="240" width="100" height="40" as="geometry" />
        </mxCell>
        <mxCell id="7wx1XrSNsFNIpXasYrjz-15" value="" style="edgeStyle=orthogonalEdgeStyle;rounded=0;orthogonalLoop=1;jettySize=auto;html=1;strokeColor=#000000;fontFamily=Helvetica;fontSize=8;startSize=10;endSize=10;" edge="1" parent="1" source="7wx1XrSNsFNIpXasYrjz-16" target="7wx1XrSNsFNIpXasYrjz-24">
          <mxGeometry relative="1" as="geometry" />
        </mxCell>
        <mxCell id="7wx1XrSNsFNIpXasYrjz-16" value="BrokerActor" style="verticalLabelPosition=middle;verticalAlign=middle;html=1;shape=mxgraph.basic.rect;fillColor2=none;strokeWidth=1;size=20;indent=5;align=center;labelPosition=center;flipV=1;flipH=1;fillColor=#b1ddf0;strokeColor=#10739e;" vertex="1" parent="1">
          <mxGeometry x="950" y="240" width="100" height="40" as="geometry" />
        </mxCell>
        <mxCell id="7wx1XrSNsFNIpXasYrjz-17" value="超极速柜台" style="rounded=0;whiteSpace=wrap;html=1;fontFamily=Helvetica;" vertex="1" parent="1">
          <mxGeometry x="1560" y="180" width="110" height="170" as="geometry" />
        </mxCell>
        <mxCell id="7wx1XrSNsFNIpXasYrjz-18" value="Router" style="text;html=1;strokeColor=none;fillColor=none;align=center;verticalAlign=middle;whiteSpace=wrap;rounded=0;fontFamily=Helvetica;" vertex="1" parent="1">
          <mxGeometry x="990" y="-60" width="60" height="30" as="geometry" />
        </mxCell>
        <mxCell id="7wx1XrSNsFNIpXasYrjz-19" value="tier_40" style="text;html=1;strokeColor=none;fillColor=none;align=center;verticalAlign=middle;whiteSpace=wrap;rounded=0;fontFamily=Helvetica;" vertex="1" parent="1">
          <mxGeometry x="-55" y="-117.5" width="30" height="22.5" as="geometry" />
        </mxCell>
        <mxCell id="7wx1XrSNsFNIpXasYrjz-20" value="" style="shape=flexArrow;endArrow=classic;html=1;rounded=0;fontFamily=Helvetica;edgeStyle=orthogonalEdgeStyle;entryX=0.473;entryY=1.05;entryDx=0;entryDy=0;entryPerimeter=0;fillColor=#dae8fc;strokeColor=#DAE8FC;endSize=10;startSize=10;exitX=1.021;exitY=0.73;exitDx=0;exitDy=0;exitPerimeter=0;" edge="1" parent="1" source="7wx1XrSNsFNIpXasYrjz-66" target="7wx1XrSNsFNIpXasYrjz-9">
          <mxGeometry width="50" height="50" relative="1" as="geometry">
            <mxPoint x="-30" y="490" as="sourcePoint" />
            <mxPoint x="100" y="440" as="targetPoint" />
            <Array as="points">
              <mxPoint x="127" y="440" />
            </Array>
          </mxGeometry>
        </mxCell>
        <mxCell id="7wx1XrSNsFNIpXasYrjz-21" value="&lt;font style=&quot;font-size: 8px;&quot;&gt;OrderConfirm&lt;br style=&quot;border-color: var(--border-color);&quot;&gt;OrderReject&lt;br style=&quot;border-color: var(--border-color);&quot;&gt;TradeConfirm&lt;br style=&quot;font-size: 8px;&quot;&gt;CancelConfirm&lt;br style=&quot;font-size: 8px;&quot;&gt;CancelReject&lt;br&gt;TransferConfirm&lt;br&gt;&lt;/font&gt;" style="shape=document;whiteSpace=wrap;html=1;boundedLbl=1;strokeColor=#DAE8FC;fontFamily=Helvetica;fillColor=#DAE8FC;size=0.3333333333333333;fontSize=8;align=left;" vertex="1" parent="1">
          <mxGeometry x="85" y="310" width="100" height="110" as="geometry" />
        </mxCell>
        <mxCell id="7wx1XrSNsFNIpXasYrjz-22" style="edgeStyle=orthogonalEdgeStyle;rounded=0;orthogonalLoop=1;jettySize=auto;html=1;strokeColor=#B20000;fontFamily=Helvetica;fontSize=8;startSize=10;endSize=10;fillColor=#e51400;strokeWidth=1;startArrow=none;" edge="1" parent="1" source="7wx1XrSNsFNIpXasYrjz-33" target="7wx1XrSNsFNIpXasYrjz-17">
          <mxGeometry relative="1" as="geometry">
            <mxPoint x="1660.0000000000005" y="347.5" as="targetPoint" />
          </mxGeometry>
        </mxCell>
        <mxCell id="7wx1XrSNsFNIpXasYrjz-23" value="SDK" style="edgeLabel;html=1;align=center;verticalAlign=middle;resizable=0;points=[];fontSize=8;fontFamily=Helvetica;" connectable="0" vertex="1" parent="7wx1XrSNsFNIpXasYrjz-22">
          <mxGeometry x="0.315" relative="1" as="geometry">
            <mxPoint x="-114" y="-10" as="offset" />
          </mxGeometry>
        </mxCell>
        <mxCell id="7wx1XrSNsFNIpXasYrjz-24" value="BrokerQueryActor" style="verticalLabelPosition=middle;verticalAlign=middle;html=1;shape=mxgraph.basic.rect;fillColor2=none;strokeWidth=1;size=20;indent=5;align=center;labelPosition=center;fillColor=#b1ddf0;strokeColor=#10739e;" vertex="1" parent="1">
          <mxGeometry x="950" y="50" width="100" height="40" as="geometry" />
        </mxCell>
        <mxCell id="7wx1XrSNsFNIpXasYrjz-25" value="" style="shape=flexArrow;endArrow=classic;html=1;rounded=0;strokeColor=#FFF2CC;fontFamily=Helvetica;fontSize=8;startSize=10;endSize=7.668571428571428;edgeStyle=orthogonalEdgeStyle;fillColor=#fff2cc;endWidth=35.38461538461539;width=9.714285714285714;" edge="1" parent="1" source="7wx1XrSNsFNIpXasYrjz-66" target="7wx1XrSNsFNIpXasYrjz-9">
          <mxGeometry width="50" height="50" relative="1" as="geometry">
            <mxPoint x="60" y="160.00000000000023" as="sourcePoint" />
            <mxPoint x="170" y="50" as="targetPoint" />
            <Array as="points">
              <mxPoint x="130" y="90" />
            </Array>
          </mxGeometry>
        </mxCell>
        <mxCell id="7wx1XrSNsFNIpXasYrjz-26" value="&lt;font style=&quot;font-size: 8px;&quot;&gt;&lt;br&gt;&lt;br&gt;PlaceOrder&lt;br style=&quot;font-size: 8px;&quot;&gt;CancelOrder&lt;br&gt;&lt;br&gt;&lt;/font&gt;" style="shape=document;whiteSpace=wrap;html=1;boundedLbl=1;strokeColor=#FFF2CC;fontFamily=Helvetica;fillColor=#FFF2CC;size=0.3333333333333333;fontSize=8;align=left;" vertex="1" parent="1">
          <mxGeometry x="90" y="110" width="90" height="80" as="geometry" />
        </mxCell>
        <mxCell id="7wx1XrSNsFNIpXasYrjz-27" value="DP" style="text;html=1;strokeColor=none;fillColor=none;align=center;verticalAlign=middle;whiteSpace=wrap;rounded=0;fontFamily=Helvetica;" vertex="1" parent="1">
          <mxGeometry x="247.5" y="-70" width="110" height="20" as="geometry" />
        </mxCell>
        <mxCell id="7wx1XrSNsFNIpXasYrjz-28" value="&lt;font style=&quot;font-size: 8px;&quot;&gt;&lt;br style=&quot;font-size: 8px;&quot;&gt;OrderConfirm&lt;br style=&quot;font-size: 8px;&quot;&gt;OrderReject&lt;br style=&quot;font-size: 8px;&quot;&gt;TradeConfirm&lt;br style=&quot;font-size: 8px;&quot;&gt;CancelConfirm&lt;br style=&quot;font-size: 8px;&quot;&gt;CancelReject&lt;/font&gt;" style="shape=document;whiteSpace=wrap;html=1;boundedLbl=1;strokeColor=#FFF2CC;fontFamily=Helvetica;fillColor=#FFF2CC;size=0.3333333333333333;fontSize=8;align=left;" vertex="1" parent="1">
          <mxGeometry x="410" y="110" width="100" height="110" as="geometry" />
        </mxCell>
        <mxCell id="7wx1XrSNsFNIpXasYrjz-29" value="Bus" style="verticalLabelPosition=middle;verticalAlign=middle;html=1;shape=mxgraph.basic.rect;fillColor2=none;strokeWidth=1;size=20;indent=5;fillColor=#DAE8FC;strokeColor=#DAE8FC;labelPosition=center;align=center;" vertex="1" parent="1">
          <mxGeometry x="750" y="280" width="20" height="330" as="geometry" />
        </mxCell>
        <mxCell id="7wx1XrSNsFNIpXasYrjz-30" value="" style="shape=flexArrow;endArrow=classic;html=1;rounded=0;fontFamily=Helvetica;edgeStyle=orthogonalEdgeStyle;entryX=1.089;entryY=0.659;entryDx=0;entryDy=0;entryPerimeter=0;fillColor=#dae8fc;strokeColor=#DAE8FC;endSize=10;startSize=10;exitX=0.488;exitY=-0.01;exitDx=0;exitDy=0;exitPerimeter=0;" edge="1" parent="1" source="7wx1XrSNsFNIpXasYrjz-16" target="7wx1XrSNsFNIpXasYrjz-29">
          <mxGeometry width="50" height="50" relative="1" as="geometry">
            <mxPoint x="700" y="531.96" as="sourcePoint" />
            <mxPoint x="857.2999999999997" y="345" as="targetPoint" />
            <Array as="points">
              <mxPoint x="1001" y="497" />
              <mxPoint x="800" y="497" />
            </Array>
          </mxGeometry>
        </mxCell>
        <mxCell id="7wx1XrSNsFNIpXasYrjz-31" value="&lt;font style=&quot;font-size: 8px;&quot;&gt;&lt;br&gt;OrderConfirm&lt;br style=&quot;border-color: var(--border-color);&quot;&gt;OrderReject&lt;br style=&quot;border-color: var(--border-color);&quot;&gt;TradeConfirm&lt;br style=&quot;font-size: 8px;&quot;&gt;CancelConfirm&lt;br style=&quot;font-size: 8px;&quot;&gt;CancelReject&lt;br&gt;TransferConfirm&lt;br&gt;&lt;/font&gt;" style="shape=document;whiteSpace=wrap;html=1;boundedLbl=1;strokeColor=#DAE8FC;fontFamily=Helvetica;fillColor=#DAE8FC;size=0.3333333333333333;fontSize=8;align=left;" vertex="1" parent="1">
          <mxGeometry x="950" y="320" width="100" height="120" as="geometry" />
        </mxCell>
        <mxCell id="7wx1XrSNsFNIpXasYrjz-32" value="" style="edgeStyle=orthogonalEdgeStyle;rounded=0;orthogonalLoop=1;jettySize=auto;html=1;strokeColor=#B20000;fontFamily=Helvetica;fontSize=8;startSize=10;endSize=10;fillColor=#e51400;strokeWidth=1;endArrow=none;" edge="1" parent="1" source="7wx1XrSNsFNIpXasYrjz-24" target="7wx1XrSNsFNIpXasYrjz-33">
          <mxGeometry relative="1" as="geometry">
            <mxPoint x="1675" y="172.5" as="targetPoint" />
            <mxPoint x="1050" y="67.50000000000023" as="sourcePoint" />
          </mxGeometry>
        </mxCell>
        <mxCell id="7wx1XrSNsFNIpXasYrjz-33" value="&lt;font style=&quot;font-size: 8px;&quot;&gt;&lt;br&gt;QryOrderReq&lt;br&gt;QryTradeReq&lt;br&gt;QryStockTransReq&lt;br&gt;&lt;br&gt;&lt;/font&gt;" style="shape=document;whiteSpace=wrap;html=1;boundedLbl=1;fontFamily=Helvetica;size=0.3333333333333333;fontSize=8;align=left;fillColor=#ffcc99;strokeColor=#FFCC99;" vertex="1" parent="1">
          <mxGeometry x="1310" y="35" width="100" height="70" as="geometry" />
        </mxCell>
        <mxCell id="7wx1XrSNsFNIpXasYrjz-34" value="tier_40" style="text;html=1;strokeColor=none;fillColor=none;align=center;verticalAlign=middle;whiteSpace=wrap;rounded=0;fontFamily=Helvetica;" vertex="1" parent="1">
          <mxGeometry x="675" y="-120" width="45" height="30" as="geometry" />
        </mxCell>
        <mxCell id="7wx1XrSNsFNIpXasYrjz-35" value="tier_50" style="text;html=1;strokeColor=none;fillColor=none;align=center;verticalAlign=middle;whiteSpace=wrap;rounded=0;fontFamily=Helvetica;" vertex="1" parent="1">
          <mxGeometry x="730" y="610" width="60" height="30" as="geometry" />
        </mxCell>
        <mxCell id="7wx1XrSNsFNIpXasYrjz-36" value="SZ_SH(tier_20)" style="rounded=0;whiteSpace=wrap;html=1;strokeColor=#6c8ebf;fillColor=#dae8fc;" vertex="1" parent="1">
          <mxGeometry x="-488" y="60" width="120" height="60" as="geometry" />
        </mxCell>
        <mxCell id="7wx1XrSNsFNIpXasYrjz-37" value="SZ_MAIN(tier_21)" style="rounded=0;whiteSpace=wrap;html=1;fillColor=#dae8fc;strokeColor=#6c8ebf;" vertex="1" parent="1">
          <mxGeometry x="-488" y="370" width="120" height="60" as="geometry" />
        </mxCell>
        <mxCell id="7wx1XrSNsFNIpXasYrjz-38" value="OMS" style="text;html=1;strokeColor=none;fillColor=none;align=center;verticalAlign=middle;whiteSpace=wrap;rounded=0;" vertex="1" parent="1">
          <mxGeometry x="-368" y="-75" width="60" height="30" as="geometry" />
        </mxCell>
        <mxCell id="7wx1XrSNsFNIpXasYrjz-39" value="" style="shape=flexArrow;endArrow=classic;html=1;rounded=0;strokeColor=#FFF2CC;fontFamily=Helvetica;fontSize=8;startSize=10;endSize=7.668571428571428;edgeStyle=orthogonalEdgeStyle;fillColor=#fff2cc;endWidth=35.38461538461539;width=9.714285714285714;exitX=1;exitY=0.5;exitDx=0;exitDy=0;entryX=-0.092;entryY=0.244;entryDx=0;entryDy=0;entryPerimeter=0;" edge="1" parent="1" source="7wx1XrSNsFNIpXasYrjz-36" target="7wx1XrSNsFNIpXasYrjz-7">
          <mxGeometry width="50" height="50" relative="1" as="geometry">
            <mxPoint x="-360" y="75" as="sourcePoint" />
            <mxPoint x="-80" y="90" as="targetPoint" />
            <Array as="points" />
          </mxGeometry>
        </mxCell>
        <mxCell id="7wx1XrSNsFNIpXasYrjz-40" value="" style="shape=flexArrow;endArrow=classic;html=1;rounded=0;strokeColor=#FFE6CC;fontFamily=Helvetica;fontSize=8;startSize=10;endSize=7.668571428571428;edgeStyle=orthogonalEdgeStyle;fillColor=#FFE6CC;endWidth=35.38461538461539;width=9.714285714285714;exitX=1;exitY=0.5;exitDx=0;exitDy=0;" edge="1" parent="1">
          <mxGeometry width="50" height="50" relative="1" as="geometry">
            <mxPoint x="-368" y="399.3800000000001" as="sourcePoint" />
            <mxPoint x="-100" y="400" as="targetPoint" />
            <Array as="points">
              <mxPoint x="-200" y="399.38" />
              <mxPoint x="-200" y="400.38" />
            </Array>
          </mxGeometry>
        </mxCell>
        <mxCell id="7wx1XrSNsFNIpXasYrjz-41" value="&lt;font style=&quot;font-size: 8px;&quot;&gt;&lt;br&gt;&lt;br&gt;PlaceOrder&lt;br style=&quot;font-size: 8px;&quot;&gt;CancelOrder&lt;br&gt;&lt;br&gt;&lt;/font&gt;" style="shape=document;whiteSpace=wrap;html=1;boundedLbl=1;strokeColor=#FFF2CC;fontFamily=Helvetica;fillColor=#FFF2CC;size=0.3333333333333333;fontSize=8;align=left;" vertex="1" parent="1">
          <mxGeometry x="-290" y="50" width="90" height="80" as="geometry" />
        </mxCell>
        <mxCell id="7wx1XrSNsFNIpXasYrjz-42" value="&lt;font style=&quot;font-size: 8px;&quot;&gt;&lt;br&gt;&lt;br&gt;PlaceOrder&lt;br style=&quot;font-size: 8px;&quot;&gt;CancelOrder&lt;br&gt;&lt;br&gt;&lt;/font&gt;" style="shape=document;whiteSpace=wrap;html=1;boundedLbl=1;strokeColor=#FFE6CC;fontFamily=Helvetica;fillColor=#FFE6CC;size=0.3333333333333333;fontSize=8;align=left;" vertex="1" parent="1">
          <mxGeometry x="-290" y="370" width="90" height="80" as="geometry" />
        </mxCell>
        <mxCell id="7wx1XrSNsFNIpXasYrjz-43" value="" style="shape=flexArrow;endArrow=classic;html=1;rounded=0;fontFamily=Helvetica;edgeStyle=orthogonalEdgeStyle;fillColor=#FFE6CC;strokeColor=#FFE6CC;endSize=10;startSize=10;" edge="1" parent="1">
          <mxGeometry width="50" height="50" relative="1" as="geometry">
            <mxPoint x="-100" y="210" as="sourcePoint" />
            <mxPoint x="-450" y="120" as="targetPoint" />
            <Array as="points">
              <mxPoint x="-450" y="210" />
            </Array>
          </mxGeometry>
        </mxCell>
        <mxCell id="7wx1XrSNsFNIpXasYrjz-44" value="oms_id:1" style="text;html=1;strokeColor=none;fillColor=none;align=center;verticalAlign=middle;whiteSpace=wrap;rounded=0;" vertex="1" parent="1">
          <mxGeometry x="-460" y="400" width="60" height="30" as="geometry" />
        </mxCell>
        <mxCell id="7wx1XrSNsFNIpXasYrjz-45" value="oms_id:0" style="text;html=1;strokeColor=none;fillColor=none;align=center;verticalAlign=middle;whiteSpace=wrap;rounded=0;" vertex="1" parent="1">
          <mxGeometry x="-470" y="90" width="60" height="30" as="geometry" />
        </mxCell>
        <mxCell id="7wx1XrSNsFNIpXasYrjz-46" value="&lt;font color=&quot;#fa0505&quot;&gt;TID + oms_id&lt;/font&gt;" style="text;html=1;strokeColor=none;fillColor=none;align=center;verticalAlign=middle;whiteSpace=wrap;rounded=0;" vertex="1" parent="1">
          <mxGeometry x="490" y="60" width="80" height="20" as="geometry" />
        </mxCell>
        <mxCell id="7wx1XrSNsFNIpXasYrjz-47" value="TID+oms_id" style="text;html=1;strokeColor=none;fillColor=none;align=center;verticalAlign=middle;whiteSpace=wrap;rounded=0;fontColor=#fa0505;" vertex="1" parent="1">
          <mxGeometry x="-400" y="170" width="60" height="30" as="geometry" />
        </mxCell>
        <mxCell id="7wx1XrSNsFNIpXasYrjz-48" value="" style="shape=flexArrow;endArrow=classic;html=1;rounded=0;fontFamily=Helvetica;edgeStyle=orthogonalEdgeStyle;fillColor=#F9F7ED;strokeColor=#F9F7ED;endSize=10;startSize=10;" edge="1" parent="1">
          <mxGeometry width="50" height="50" relative="1" as="geometry">
            <mxPoint x="-100" y="520" as="sourcePoint" />
            <mxPoint x="-420" y="430" as="targetPoint" />
            <Array as="points">
              <mxPoint x="-420" y="520" />
            </Array>
          </mxGeometry>
        </mxCell>
        <mxCell id="7wx1XrSNsFNIpXasYrjz-49" value="&lt;br style=&quot;border-color: var(--border-color); color: rgb(0, 0, 0); font-size: 8px;&quot;&gt;&lt;span style=&quot;color: rgb(0, 0, 0); font-size: 8px;&quot;&gt;OrderConfirm&lt;/span&gt;&lt;br style=&quot;border-color: var(--border-color); color: rgb(0, 0, 0); font-size: 8px;&quot;&gt;&lt;span style=&quot;color: rgb(0, 0, 0); font-size: 8px;&quot;&gt;OrderReject&lt;/span&gt;&lt;br style=&quot;border-color: var(--border-color); color: rgb(0, 0, 0); font-size: 8px;&quot;&gt;&lt;span style=&quot;color: rgb(0, 0, 0); font-size: 8px;&quot;&gt;TradeConfirm&lt;/span&gt;&lt;br style=&quot;border-color: var(--border-color); color: rgb(0, 0, 0); font-size: 8px;&quot;&gt;&lt;span style=&quot;color: rgb(0, 0, 0); font-size: 8px;&quot;&gt;CancelConfirm&lt;/span&gt;&lt;br style=&quot;border-color: var(--border-color); color: rgb(0, 0, 0); font-size: 8px;&quot;&gt;&lt;span style=&quot;color: rgb(0, 0, 0); font-size: 8px;&quot;&gt;CancelReject&lt;/span&gt;" style="shape=document;whiteSpace=wrap;html=1;boundedLbl=1;strokeColor=#F9F7ED;fillColor=#F9F7ED;align=left;" vertex="1" parent="1">
          <mxGeometry x="-300" y="480" width="100" height="100" as="geometry" />
        </mxCell>
        <mxCell id="7wx1XrSNsFNIpXasYrjz-50" value="TID+oms_id" style="text;html=1;strokeColor=none;fillColor=none;align=center;verticalAlign=middle;whiteSpace=wrap;rounded=0;fontColor=#fa0505;" vertex="1" parent="1">
          <mxGeometry x="-390" y="480" width="60" height="30" as="geometry" />
        </mxCell>
        <mxCell id="7wx1XrSNsFNIpXasYrjz-51" style="edgeStyle=orthogonalEdgeStyle;rounded=0;orthogonalLoop=1;jettySize=auto;html=1;strokeColor=#b85450;fontColor=#FF0000;fillColor=#f8cecc;exitX=0.012;exitY=0.483;exitDx=0;exitDy=0;exitPerimeter=0;" edge="1" parent="1" source="7wx1XrSNsFNIpXasYrjz-16">
          <mxGeometry relative="1" as="geometry">
            <mxPoint x="1200" y="260" as="sourcePoint" />
            <mxPoint x="1560" y="260" as="targetPoint" />
            <Array as="points">
              <mxPoint x="1560" y="261" />
            </Array>
          </mxGeometry>
        </mxCell>
        <mxCell id="7wx1XrSNsFNIpXasYrjz-52" value="QuotActor" style="verticalLabelPosition=middle;verticalAlign=middle;html=1;shape=mxgraph.basic.rect;fillColor2=none;strokeWidth=1;size=20;indent=5;align=center;labelPosition=center;fillColor=#d5e8d4;strokeColor=#82b366;" vertex="1" parent="1">
          <mxGeometry x="400" y="450" width="100" height="40" as="geometry" />
        </mxCell>
        <mxCell id="7wx1XrSNsFNIpXasYrjz-53" value="QueryActor" style="verticalLabelPosition=middle;verticalAlign=middle;html=1;shape=mxgraph.basic.rect;fillColor2=none;strokeWidth=1;size=20;indent=5;align=center;labelPosition=center;fillColor=#e1d5e7;strokeColor=#9673a6;" vertex="1" parent="1">
          <mxGeometry x="400" y="560" width="100" height="40" as="geometry" />
        </mxCell>
        <mxCell id="7wx1XrSNsFNIpXasYrjz-54" value="Bus" style="verticalLabelPosition=middle;verticalAlign=middle;html=1;shape=mxgraph.basic.rect;fillColor2=none;strokeWidth=1;size=20;indent=5;fillColor=#E1D5E7;strokeColor=#E1D5E7;labelPosition=center;align=center;" vertex="1" parent="1">
          <mxGeometry x="690" y="280" width="20" height="330" as="geometry" />
        </mxCell>
        <mxCell id="7wx1XrSNsFNIpXasYrjz-55" value="" style="shape=flexArrow;endArrow=classic;html=1;rounded=0;edgeStyle=orthogonalEdgeStyle;exitX=1;exitY=0.505;exitDx=0;exitDy=0;exitPerimeter=0;fillColor=#D5E8D4;strokeColor=#D5E8D4;entryX=0;entryY=0.576;entryDx=0;entryDy=0;entryPerimeter=0;" edge="1" parent="1" source="7wx1XrSNsFNIpXasYrjz-52" target="7wx1XrSNsFNIpXasYrjz-54">
          <mxGeometry width="50" height="50" relative="1" as="geometry">
            <mxPoint x="510" y="480" as="sourcePoint" />
            <mxPoint x="590" y="470" as="targetPoint" />
            <Array as="points" />
          </mxGeometry>
        </mxCell>
        <mxCell id="7wx1XrSNsFNIpXasYrjz-56" value="" style="shape=flexArrow;endArrow=classic;html=1;rounded=0;edgeStyle=orthogonalEdgeStyle;fillColor=#E1D5E7;strokeColor=#E1D5E7;" edge="1" parent="1">
          <mxGeometry width="50" height="50" relative="1" as="geometry">
            <mxPoint x="-30" y="579.5799999999999" as="sourcePoint" />
            <mxPoint x="400" y="579.5799999999999" as="targetPoint" />
            <Array as="points">
              <mxPoint x="-28" y="579.58" />
            </Array>
          </mxGeometry>
        </mxCell>
        <mxCell id="7wx1XrSNsFNIpXasYrjz-57" value="" style="shape=flexArrow;endArrow=classic;html=1;rounded=0;edgeStyle=orthogonalEdgeStyle;exitX=1;exitY=0.505;exitDx=0;exitDy=0;exitPerimeter=0;fillColor=#E1D5E7;strokeColor=#E1D5E7;entryX=-0.085;entryY=0.907;entryDx=0;entryDy=0;entryPerimeter=0;" edge="1" parent="1" target="7wx1XrSNsFNIpXasYrjz-54">
          <mxGeometry width="50" height="50" relative="1" as="geometry">
            <mxPoint x="500" y="579.7799999999997" as="sourcePoint" />
            <mxPoint x="680" y="580" as="targetPoint" />
            <Array as="points">
              <mxPoint x="545" y="580" />
            </Array>
          </mxGeometry>
        </mxCell>
        <mxCell id="7wx1XrSNsFNIpXasYrjz-58" style="edgeStyle=orthogonalEdgeStyle;rounded=0;orthogonalLoop=1;jettySize=auto;html=1;entryX=-0.023;entryY=0.593;entryDx=0;entryDy=0;entryPerimeter=0;strokeColor=#000000;fontColor=#FF0000;fillColor=#DAE8FC;" edge="1" parent="1" source="7wx1XrSNsFNIpXasYrjz-12" target="7wx1XrSNsFNIpXasYrjz-53">
          <mxGeometry relative="1" as="geometry">
            <Array as="points">
              <mxPoint x="310" y="584" />
            </Array>
          </mxGeometry>
        </mxCell>
        <mxCell id="7wx1XrSNsFNIpXasYrjz-59" value="&lt;font style=&quot;font-size: 8px;&quot;&gt;DepthQuot&lt;br&gt;RCParam&lt;br&gt;&lt;/font&gt;" style="shape=document;whiteSpace=wrap;html=1;boundedLbl=1;strokeColor=#D5E8D4;fontFamily=Helvetica;fillColor=#D5E8D4;size=0.3333333333333333;fontSize=8;align=left;" vertex="1" parent="1">
          <mxGeometry x="540" y="445" width="80" height="50" as="geometry" />
        </mxCell>
        <mxCell id="7wx1XrSNsFNIpXasYrjz-60" value="&lt;font style=&quot;font-size: 8px;&quot;&gt;QryOrderRsp&lt;br&gt;QryTradeRsp&lt;br&gt;&lt;/font&gt;" style="shape=document;whiteSpace=wrap;html=1;boundedLbl=1;strokeColor=#E1D5E7;fontFamily=Helvetica;fillColor=#E1D5E7;size=0.3333333333333333;fontSize=8;align=left;" vertex="1" parent="1">
          <mxGeometry x="540" y="550" width="80" height="50" as="geometry" />
        </mxCell>
        <mxCell id="7wx1XrSNsFNIpXasYrjz-61" value="&lt;font style=&quot;font-size: 8px;&quot;&gt;QryOrderReq&lt;br&gt;QryTradeReq&lt;br&gt;&lt;/font&gt;" style="shape=document;whiteSpace=wrap;html=1;boundedLbl=1;strokeColor=#E1D5E7;fontFamily=Helvetica;fillColor=#E1D5E7;size=0.3333333333333333;fontSize=8;align=left;" vertex="1" parent="1">
          <mxGeometry x="95" y="555" width="80" height="50" as="geometry" />
        </mxCell>
        <mxCell id="7wx1XrSNsFNIpXasYrjz-62" value="" style="shape=flexArrow;endArrow=classic;html=1;rounded=0;fontFamily=Helvetica;edgeStyle=orthogonalEdgeStyle;fillColor=#FFE6CC;strokeColor=#FFE6CC;endSize=10;startSize=10;" edge="1" parent="1">
          <mxGeometry width="50" height="50" relative="1" as="geometry">
            <mxPoint x="-100" y="210" as="sourcePoint" />
            <mxPoint x="-420" y="120" as="targetPoint" />
            <Array as="points">
              <mxPoint x="-420" y="210" />
            </Array>
          </mxGeometry>
        </mxCell>
        <mxCell id="7wx1XrSNsFNIpXasYrjz-63" value="" style="shape=flexArrow;endArrow=classic;html=1;rounded=0;fontFamily=Helvetica;edgeStyle=orthogonalEdgeStyle;fillColor=#FFE6CC;strokeColor=#FFE6CC;endSize=10;startSize=10;" edge="1" parent="1">
          <mxGeometry width="50" height="50" relative="1" as="geometry">
            <mxPoint x="-100" y="210" as="sourcePoint" />
            <mxPoint x="-420" y="120" as="targetPoint" />
            <Array as="points">
              <mxPoint x="-420" y="210" />
            </Array>
          </mxGeometry>
        </mxCell>
        <mxCell id="7wx1XrSNsFNIpXasYrjz-64" value="" style="shape=flexArrow;endArrow=classic;html=1;rounded=0;fontFamily=Helvetica;edgeStyle=orthogonalEdgeStyle;fillColor=#EBDEBC;strokeColor=#EBDEBC;endSize=10;startSize=10;" edge="1" parent="1">
          <mxGeometry width="50" height="50" relative="1" as="geometry">
            <mxPoint x="-100" y="210" as="sourcePoint" />
            <mxPoint x="-420" y="120" as="targetPoint" />
            <Array as="points">
              <mxPoint x="-420" y="210" />
            </Array>
          </mxGeometry>
        </mxCell>
        <mxCell id="7wx1XrSNsFNIpXasYrjz-65" value="&lt;br style=&quot;border-color: var(--border-color); color: rgb(0, 0, 0); font-size: 8px;&quot;&gt;&lt;span style=&quot;color: rgb(0, 0, 0); font-size: 8px;&quot;&gt;OrderConfirm&lt;/span&gt;&lt;br style=&quot;border-color: var(--border-color); color: rgb(0, 0, 0); font-size: 8px;&quot;&gt;&lt;span style=&quot;color: rgb(0, 0, 0); font-size: 8px;&quot;&gt;OrderReject&lt;/span&gt;&lt;br style=&quot;border-color: var(--border-color); color: rgb(0, 0, 0); font-size: 8px;&quot;&gt;&lt;span style=&quot;color: rgb(0, 0, 0); font-size: 8px;&quot;&gt;TradeConfirm&lt;/span&gt;&lt;br style=&quot;border-color: var(--border-color); color: rgb(0, 0, 0); font-size: 8px;&quot;&gt;&lt;span style=&quot;color: rgb(0, 0, 0); font-size: 8px;&quot;&gt;CancelConfirm&lt;/span&gt;&lt;br style=&quot;border-color: var(--border-color); color: rgb(0, 0, 0); font-size: 8px;&quot;&gt;&lt;span style=&quot;color: rgb(0, 0, 0); font-size: 8px;&quot;&gt;CancelReject&lt;/span&gt;" style="shape=document;whiteSpace=wrap;html=1;boundedLbl=1;strokeColor=#EBDEBC;fillColor=#EBDEBC;align=left;" vertex="1" parent="1">
          <mxGeometry x="-300" y="172.5" width="100" height="100" as="geometry" />
        </mxCell>
        <mxCell id="7wx1XrSNsFNIpXasYrjz-66" value="Bus" style="verticalLabelPosition=middle;verticalAlign=middle;html=1;shape=mxgraph.basic.rect;fillColor2=none;strokeWidth=1;size=5.53;indent=5;fillColor=#d5e8d4;strokeColor=#D5E8D4;labelPosition=center;align=center;" vertex="1" parent="1">
          <mxGeometry x="-50" y="-92.5" width="20" height="732.5" as="geometry" />
        </mxCell>
        <mxCell id="7wx1XrSNsFNIpXasYrjz-67" value="tier_20" style="text;html=1;strokeColor=none;fillColor=none;align=center;verticalAlign=middle;whiteSpace=wrap;rounded=0;fontFamily=Helvetica;" vertex="1" parent="1">
          <mxGeometry x="-100" y="-117.5" width="30" height="22.5" as="geometry" />
        </mxCell>
        <mxCell id="7wx1XrSNsFNIpXasYrjz-68" value="tier_45" style="text;html=1;strokeColor=none;fillColor=none;align=center;verticalAlign=middle;whiteSpace=wrap;rounded=0;fontFamily=Helvetica;" vertex="1" parent="1">
          <mxGeometry x="680" y="610" width="60" height="30" as="geometry" />
        </mxCell>
        <mxCell id="7wx1XrSNsFNIpXasYrjz-69" value="&lt;font style=&quot;font-size: 8px;&quot;&gt;&lt;span style=&quot;border-color: var(--border-color);&quot;&gt;PlaceOrder&lt;/span&gt;&lt;br style=&quot;border-color: var(--border-color);&quot;&gt;&lt;span style=&quot;border-color: var(--border-color);&quot;&gt;CancelOrder&lt;/span&gt;&lt;br&gt;&lt;/font&gt;" style="shape=document;whiteSpace=wrap;html=1;boundedLbl=1;fontFamily=Helvetica;size=0.3333333333333333;fontSize=8;align=left;fillColor=#ffcc99;strokeColor=#FFCC99;" vertex="1" parent="1">
          <mxGeometry x="1310" y="230" width="100" height="70" as="geometry" />
        </mxCell>
      </root>
    </mxGraphModel>
  </diagram>
</mxfile>
